<svg width="107" height="107" viewBox="0 0 107 107" fill="none" xmlns="http://www.w3.org/2000/svg">
<circle cx="53.5" cy="53.5" r="53.5" fill="#EA5455" fill-opacity="0.2"/>
<path d="M69.3479 42.6868C68.741 42.6868 68.1589 42.9279 67.7297 43.3571C67.3005 43.7863 67.0594 44.3684 67.0594 44.9753V70.5866C66.9937 71.7439 66.4734 72.8284 65.6119 73.6038C64.7503 74.3792 63.6172 74.7828 62.4594 74.7266H44.1967C43.0389 74.7828 41.9058 74.3792 41.0442 73.6038C40.1826 72.8284 39.6623 71.7439 39.5967 70.5866V44.9753C39.5967 44.3684 39.3555 43.7863 38.9263 43.3571C38.4972 42.9279 37.9151 42.6868 37.3081 42.6868C36.7011 42.6868 36.119 42.9279 35.6898 43.3571C35.2606 43.7863 35.0195 44.3684 35.0195 44.9753V70.5866C35.0849 72.9581 36.0873 75.207 37.8074 76.8409C39.5275 78.4747 41.825 79.3603 44.1967 79.3037H62.4594C64.8311 79.3603 67.1285 78.4747 68.8486 76.8409C70.5687 75.207 71.5712 72.9581 71.6365 70.5866V44.9753C71.6365 44.3684 71.3954 43.7863 70.9662 43.3571C70.537 42.9279 69.9549 42.6868 69.3479 42.6868Z" fill="#EA5455"/>
<path d="M71.634 35.8186H62.4798V31.2414C62.4798 30.6345 62.2387 30.0524 61.8095 29.6232C61.3803 29.194 60.7982 28.9529 60.1912 28.9529H46.4599C45.8529 28.9529 45.2708 29.194 44.8416 29.6232C44.4124 30.0524 44.1713 30.6345 44.1713 31.2414V35.8186H35.0171C34.4101 35.8186 33.828 36.0597 33.3988 36.4889C32.9696 36.9181 32.7285 37.5002 32.7285 38.1071C32.7285 38.7141 32.9696 39.2962 33.3988 39.7254C33.828 40.1546 34.4101 40.3957 35.0171 40.3957H71.634C72.241 40.3957 72.8231 40.1546 73.2523 39.7254C73.6815 39.2962 73.9226 38.7141 73.9226 38.1071C73.9226 37.5002 73.6815 36.9181 73.2523 36.4889C72.8231 36.0597 72.241 35.8186 71.634 35.8186ZM48.7484 35.8186V33.53H57.9027V35.8186H48.7484Z" fill="#EA5455"/>
<path d="M51.0342 65.57V49.55C51.0342 48.9431 50.793 48.361 50.3638 47.9318C49.9347 47.5026 49.3526 47.2615 48.7456 47.2615C48.1386 47.2615 47.5565 47.5026 47.1273 47.9318C46.6981 48.361 46.457 48.9431 46.457 49.55V65.57C46.457 66.1769 46.6981 66.759 47.1273 67.1882C47.5565 67.6174 48.1386 67.8585 48.7456 67.8585C49.3526 67.8585 49.9347 67.6174 50.3638 67.1882C50.793 66.759 51.0342 66.1769 51.0342 65.57Z" fill="#EA5455"/>
<path d="M60.1904 65.57V49.55C60.1904 48.9431 59.9493 48.361 59.5201 47.9318C59.0909 47.5026 58.5088 47.2615 57.9018 47.2615C57.2949 47.2615 56.7128 47.5026 56.2836 47.9318C55.8544 48.361 55.6133 48.9431 55.6133 49.55V65.57C55.6133 66.1769 55.8544 66.759 56.2836 67.1882C56.7128 67.6174 57.2949 67.8585 57.9018 67.8585C58.5088 67.8585 59.0909 67.6174 59.5201 67.1882C59.9493 66.759 60.1904 66.1769 60.1904 65.57Z" fill="#EA5455"/>
</svg>
