<svg width="28" height="28" viewBox="0 0 28 28" fill="none" xmlns="http://www.w3.org/2000/svg">
<g clip-path="url(#clip0_485_34)">
<path d="M14.0592 19.7196C13.3635 19.7196 12.8169 19.5488 12.4473 19.2087C12.0575 18.8608 11.7872 18.2722 11.6599 17.4631L11.6459 17.3777C11.5046 16.8388 10.9502 16.5267 10.4191 16.654L6.77887 17.6122C6.23999 17.7334 5.89833 18.2738 6.02723 18.7972C6.43877 20.5846 7.16246 22.018 8.22625 23.0554C9.12077 23.9282 10.2203 24.5028 11.5481 24.8072V25.9704V25.9983C11.5481 26.545 12.0015 27 12.5404 27H15.3498H15.37C15.9306 27 16.3716 26.5465 16.3716 25.9983V24.8072C17.0099 24.6581 17.6063 24.4733 18.1312 24.2326C18.9341 23.849 19.622 23.3381 20.1889 22.6982C20.7557 22.0538 21.1967 21.3223 21.4872 20.5054C21.7791 19.6963 21.9204 18.8173 21.9204 17.8871C21.9204 17.255 21.849 16.6665 21.7077 16.1214C21.4375 15.0343 20.8566 14.0357 20.0615 13.2468C19.24 12.4377 18.2678 11.9765 17.2242 11.5075C16.089 11.0183 14.8963 10.6564 13.7828 10.13C11.6894 9.13762 13.6912 7.06594 15.1386 8.42791C15.5082 8.76801 15.8265 9.30845 16.0905 10.0679L16.1185 10.1455C16.3313 10.6564 16.9121 10.9049 17.4246 10.6844L20.7029 9.32863C21.1641 9.15159 21.4126 8.6329 21.2713 8.13595C20.8458 6.66061 20.1423 5.4819 19.1841 4.60291C18.4045 3.8932 17.468 3.41023 16.3747 3.11982V2.02186V2.00788C16.3747 1.46124 15.9352 1 15.3731 1H12.5699H12.542C12.0031 1 11.5496 1.46124 11.5496 2.00788V3.1369C10.944 3.29996 10.4035 3.51272 9.91434 3.78139C9.18289 4.18516 8.58033 4.71162 8.09735 5.36388C6.81925 7.09545 6.36578 9.34416 6.87671 11.4453C7.00561 11.9563 7.18886 12.4532 7.4451 12.9067L7.4948 12.9921C7.77123 13.4611 8.0694 13.8789 8.43901 14.2485C8.79464 14.6243 9.19841 14.9442 9.64412 15.2129C10.0557 15.4536 10.5386 15.7021 11.0853 15.9428C11.6242 16.185 12.2423 16.418 12.91 16.6463C13.5778 16.8948 14.1291 17.0997 14.5562 17.2923L14.6121 17.3203C16.5285 18.1868 15.6681 19.7196 14.0592 19.7196ZM16.7552 20.7555C17.0596 20.4433 17.2941 20.0737 17.4354 19.6979C17.5923 19.3143 17.6637 18.895 17.6637 18.4555C17.6637 17.575 17.3593 16.7659 16.6698 16.213L16.6558 16.199C15.3358 15.1632 13.4054 14.7796 11.8866 14.1134C11.4036 13.9068 11.0061 13.7018 10.666 13.503C10.374 13.3338 10.1131 13.1195 9.87086 12.871C9.63014 12.6365 9.41739 12.3321 9.22482 11.9982L9.18289 11.9423C9.02603 11.6364 8.89869 11.3102 8.82104 10.9624C8.33806 9.00406 9.04001 6.54103 10.8787 5.5347C11.3897 5.2443 12 5.04396 12.7097 4.93215C13.1927 4.8545 13.5468 4.43519 13.5468 3.95377V3.008H14.3683V3.95222C14.3683 4.46315 14.7659 4.89488 15.2908 4.94457C16.3266 5.08589 17.1792 5.48345 17.8454 6.0798C18.3424 6.53327 18.7477 7.13117 19.0583 7.86728L17.5783 8.47294C17.2801 7.85641 16.9105 7.35945 16.5005 6.96189C15.8203 6.33759 15.0035 6.01147 14.0732 6.01147C13.6198 6.01147 13.1927 6.07514 12.8184 6.22423C10.8663 6.96189 10.0432 9.83491 11.795 11.2621V11.2761C12.0575 11.4749 12.4333 11.7078 12.9302 11.9439C14.0732 12.4827 15.2783 12.8446 16.4275 13.3415C16.9524 13.5683 17.3919 13.8028 17.7895 14.0155C18.1172 14.1926 18.3998 14.4193 18.6561 14.6693C19.195 15.2082 19.5785 15.8744 19.7696 16.6121C19.8752 16.9957 19.9264 17.429 19.9264 17.8902C19.9264 18.6139 19.8192 19.2662 19.6143 19.8268C19.4077 20.3952 19.0956 20.9123 18.698 21.3735H18.684C18.3004 21.8068 17.833 22.1609 17.2786 22.4094C16.69 22.6998 16.016 22.8846 15.2488 22.97C14.7519 23.0492 14.3838 23.467 14.3838 23.9701H14.3698V24.9998H13.5483V23.9779C13.5483 23.4452 13.1228 23.0135 12.5824 22.984C11.3617 22.7992 10.3756 22.3597 9.61617 21.636C9.01982 21.0397 8.54461 20.274 8.2247 19.2941L9.94229 18.8469C10.2047 19.6063 10.5883 20.2088 11.0977 20.6778V20.6856C11.8571 21.3736 12.851 21.7276 14.0577 21.7276C14.6106 21.7276 15.1075 21.664 15.5408 21.5087C16.03 21.344 16.4431 21.0816 16.7552 20.7555Z" fill="white"/>
</g>
<defs>
<clipPath id="clip0_485_34">
<rect width="28" height="28" fill="white"/>
</clipPath>
</defs>
</svg>
